<svg xmlns="http://www.w3.org/2000/svg" version="1.1" xmlns:xlink="http://www.w3.org/1999/xlink" xmlns:svgjs="http://svgjs.dev/svgjs" width="1000" height="1000" viewBox="0 0 1000 1000"><rect width="1000" height="1000" fill="#ffffff"></rect><g transform="matrix(0.7,0,0,0.7,149.57576015041548,336.48283696260614)"><svg viewBox="0 0 396 185" data-background-color="#fce44d" preserveAspectRatio="xMidYMid meet" height="467" width="1000" xmlns="http://www.w3.org/2000/svg" xmlns:xlink="http://www.w3.org/1999/xlink"><g id="tight-bounds" transform="matrix(1,0,0,1,0.23999854347925975,0.038009060623636515)"><svg viewBox="0 0 395.52 184.92397522219227" height="184.92397522219227" width="395.52"><g><svg viewBox="0 0 395.52000000000004 184.9239752221923" height="184.92397522219227" width="395.52"><g><svg viewBox="0 0 395.52000000000004 184.9239752221923" height="184.9239752221923" width="395.52000000000004"><g><svg viewBox="0 0 395.52000000000004 184.9239752221923" height="184.9239752221923" width="395.52000000000004"><g><svg viewBox="0 0 395.52000000000004 184.9239752221923" height="184.9239752221923" width="395.52000000000004"><g transform="matrix(1,0,0,1,0,0)"><svg width="395.52000000000004" viewBox="1.809999942779541 -36.040000915527344 90.63999938964844 42.38999938964844" height="184.9239752221923" data-palette-color="#374151"><path d="M17.87-9.33L17.87-9.33Q17.87-11.5 16.76-12.61 15.65-13.72 12.72-14.92L12.72-14.92Q7.37-16.94 5.03-19.67 2.69-22.39 2.69-26.1L2.69-26.1Q2.69-30.59 5.87-33.31 9.06-36.04 13.96-36.04L13.96-36.04Q17.24-36.04 19.8-34.66 22.36-33.28 23.74-30.76 25.12-28.25 25.12-25.05L25.12-25.05 17.97-25.05Q17.97-27.54 16.91-28.85 15.84-30.15 13.84-30.15L13.84-30.15Q11.96-30.15 10.91-29.04 9.86-27.93 9.86-26.05L9.86-26.05Q9.86-24.58 11.04-23.4 12.21-22.22 15.19-20.95L15.19-20.95Q20.39-19.07 22.74-16.33 25.1-13.6 25.1-9.38L25.1-9.38Q25.1-4.74 22.14-2.12 19.19 0.49 14.11 0.49L14.11 0.49Q10.67 0.49 7.84-0.93 5-2.34 3.41-4.98 1.81-7.62 1.81-11.21L1.81-11.21 9.01-11.21Q9.01-8.13 10.21-6.74 11.4-5.35 14.11-5.35L14.11-5.35Q17.87-5.35 17.87-9.33ZM48.78-35.55L52.95-13.21 56.32-35.55 63.43-35.55 57.1 0 49.9 0 45.75-20.95 41.65 0 34.42 0 28.07-35.55 35.23-35.55 38.57-13.23 42.75-35.55 48.78-35.55ZM92.3-20.97L92.3-15.01Q92.3-6.2 87.54-2.2L87.54-2.2 92.45 2.2 87.93 6.35 81.39 0.37 79.51 0.49Q73.48 0.49 70.08-3.6 66.67-7.69 66.65-14.92L66.65-14.92 66.65-20.48Q66.65-27.81 70.04-31.92 73.43-36.04 79.46-36.04L79.46-36.04Q85.35-36.04 88.76-32.08 92.18-28.13 92.3-20.97L92.3-20.97ZM85.1-14.84L85.1-20.53Q85.1-25.39 83.71-27.71 82.32-30.03 79.46-30.03 76.61-30.03 75.24-27.77 73.87-25.51 73.82-20.9L73.82-20.9 73.82-15.01Q73.82-10.13 75.23-7.81 76.63-5.49 79.51-5.49L79.51-5.49Q82.32-5.49 83.7-7.8 85.08-10.11 85.1-14.84L85.1-14.84Z" opacity="1" transform="matrix(1,0,0,1,0,0)" fill="#000000" class="undefined-text-0" data-fill-palette-color="primary" id="text-0"></path></svg></g></svg></g></svg></g></svg></g><g></g></svg></g><defs></defs></svg><rect width="395.52" height="184.92397522219227" fill="none" stroke="none" visibility="hidden"></rect></g></svg></g></svg>